<svg width="30" height="30" viewBox="0 0 30 30" fill="none" xmlns="http://www.w3.org/2000/svg">
<path d="M25.5749 15C26.4897 14.4352 27.2529 13.8594 27.793 13.303C30.7357 10.2605 30.7357 5.32437 27.793 2.28187C24.8503 -0.760624 20.0753 -0.760624 17.1326 2.28187C16.4355 3.00443 15.7054 4.12287 15 5.47109C14.2919 4.12287 13.5645 3.00166 12.8674 2.28187C9.92469 -0.760624 5.14971 -0.760624 2.20702 2.28187C-0.735672 5.32437 -0.735672 10.2605 2.20702 13.303C2.74706 13.8622 3.51029 14.4352 4.42506 15C3.51029 15.5648 2.74706 16.1406 2.20702 16.697C-0.735672 19.7395 -0.735672 24.6756 2.20702 27.7181C5.14971 30.7606 9.92469 30.7606 12.8674 27.7181C13.5645 26.9956 14.2946 25.8771 15 24.5289C15.7081 25.8771 16.4355 26.9956 17.1326 27.7181C20.0753 30.7606 24.8503 30.7606 27.793 27.7181C30.7357 24.6756 30.7357 19.7395 27.793 16.697C27.2529 16.1378 26.4897 15.5648 25.5749 15ZM16.1352 16.1738L15 22.7793L13.8648 16.1738L7.4752 15L13.8648 13.8262L15 7.22074L16.1352 13.8262L22.5248 15L16.1352 16.1738Z" fill="#8D6959"/>
</svg>
