<svg width="32" height="32" viewBox="0 0 32 32" fill="none" xmlns="http://www.w3.org/2000/svg">
<path d="M31.8138 11.875C31.2496 9.36984 29.5952 7.6192 28.1171 7.96217C26.9505 8.23356 19.8626 12.8503 16.9387 14.7798C19.4395 12.3164 25.4547 6.33082 25.9749 5.23629C26.6331 3.84949 25.3166 1.82447 23.0392 0.709064C20.7589 -0.403357 18.3786 -0.182662 17.7204 1.20115C17.2003 2.29866 16.3392 10.8014 16.0013 14.3206C15.6634 10.8014 14.8024 2.29568 14.2822 1.20115C13.624 -0.182662 11.2437 -0.403357 8.9634 0.709064C6.68305 1.82148 5.36951 3.84949 6.02775 5.23629C6.54788 6.3338 12.5632 12.3164 15.0639 14.7798C12.14 12.8532 5.05214 8.23356 3.88552 7.96515C2.40741 7.62218 0.752988 9.37581 0.18878 11.878C-0.375429 14.3832 0.368034 16.6886 1.84614 17.0315C3.01276 17.3029 11.373 16.2621 14.8318 15.8117C11.5258 16.9301 3.54758 19.6739 2.61017 20.4314C1.42592 21.3917 1.74329 23.7955 3.32131 25.8027C4.89933 27.8098 7.13854 28.6598 8.32279 27.6994C9.26019 26.9419 13.671 19.659 15.4782 16.6379C14.2793 19.9572 11.4171 27.9977 11.4171 29.2145C11.4171 30.7534 13.4682 32 15.9984 32C18.5285 32 20.5796 30.7534 20.5796 29.2145C20.5796 27.9977 17.7204 19.9602 16.5185 16.6379C18.3287 19.662 22.7395 26.9419 23.674 27.6994C24.8582 28.6598 27.0974 27.8068 28.6754 25.8027C30.2535 23.7985 30.5708 21.3917 29.3866 20.4314C28.4492 19.6739 20.4738 16.9301 17.165 15.8117C20.6237 16.2591 28.981 17.2999 30.1506 17.0315C31.6346 16.6886 32.3751 14.3802 31.8109 11.878L31.8138 11.875Z" fill="#8D6959"/>
</svg>
