<svg width="15" height="15" viewBox="0 0 15 15" fill="none" xmlns="http://www.w3.org/2000/svg">
<path fill-rule="evenodd" clip-rule="evenodd" d="M14.968 5.68015C14.8824 5.4058 14.6397 5.22105 14.3636 5.22105H9.58214L8.1051 0.460023V0.459107C8.01863 0.184749 7.77598 0 7.49981 0C7.22452 0 6.98098 0.184748 6.8954 0.460031L5.41747 5.22105H0.636049C0.359879 5.22105 0.117225 5.4058 0.0316403 5.68015C-0.0539448 5.95451 0.0378121 6.2538 0.261935 6.42469L4.13102 9.36777L2.65308 14.1297C2.5675 14.405 2.66191 14.7043 2.88603 14.8733C2.9972 14.9574 3.12779 15 3.25837 15C3.38896 15 3.51955 14.9574 3.63161 14.8724L7.49981 11.9303L11.3671 14.8724C11.5904 15.0424 11.8912 15.0424 12.1145 14.8733C12.3386 14.7043 12.4321 14.405 12.3465 14.1288L10.8686 9.36777L14.7386 6.4247C14.9618 6.2538 15.0544 5.95451 14.968 5.68016" fill="white"/>
</svg>
