<svg width="32" height="32" viewBox="0 0 32 32" fill="none" xmlns="http://www.w3.org/2000/svg">
<path d="M16 15.489C15.7901 13.8483 14.8546 8.57377 11.1514 4.88308C6.71964 0.466193 0 0 0 0C0 0 0.467766 6.69705 4.90255 11.1139C9.01049 15.2081 15.0795 15.9103 15.946 15.991C15.946 15.994 15.946 16 15.946 16C15.946 16 15.967 16 16 15.997C16.033 15.997 16.054 16 16.054 16C16.054 16 16.054 15.994 16.054 15.991C16.9205 15.9103 22.9895 15.2081 27.0975 11.1139C31.5292 6.69705 32 0 32 0C32 0 25.2804 0.466194 20.8486 4.88607C17.1484 8.57377 16.2099 13.8483 16 15.492V15.489Z" fill="#8D6959"/>
<path d="M15.946 31.991V32C15.946 32 15.967 32 16 31.997C16.033 31.997 16.054 32 16.054 32C16.054 32 16.054 31.994 16.054 31.991C16.9205 31.9103 22.9895 31.2081 27.0975 27.1139C31.5292 22.6971 32 16 32 16C32 16 25.2804 16.4662 20.8486 20.8861C17.1484 24.5738 16.2099 29.8483 16 31.492C15.7901 29.8513 14.8546 24.5768 11.1514 20.8861C6.71964 16.4662 0 16 0 16C0 16 0.467766 22.6971 4.90255 27.1139C9.01049 31.2081 15.0795 31.9103 15.946 31.991Z" fill="#8D6959"/>
</svg>
