<svg width="42" height="32" viewBox="0 0 42 32" fill="none" xmlns="http://www.w3.org/2000/svg">
<path fill-rule="evenodd" clip-rule="evenodd" d="M20.9742 14.6543C21.1071 14.6136 21.2141 14.5211 21.2732 14.3954C22.2587 12.2576 23.8238 9.8424 25.8319 7.49008C30.6305 1.87558 36.1636 -1.26085 38.1975 0.4812C40.1871 2.18626 38.0757 7.94131 33.4838 13.4522C38.2492 13.7185 41.73 15.2202 41.9847 17.4246C42.2948 20.0728 37.8542 22.8467 31.712 24.0562C33.7311 27.237 34.2996 30.3031 32.9006 31.5015C31.1694 32.9846 27.0832 31.0466 23.7685 27.1704C22.9896 26.2606 22.3215 25.3211 21.7826 24.4039L21.7051 24.3336C21.1772 23.8565 20.3651 23.9082 19.9037 24.4482C19.3685 25.3544 18.7078 26.2754 17.9437 27.1704C14.629 31.0466 10.5428 32.9846 8.81156 31.5015C7.4052 30.2957 7.98842 27.2 10.0334 24.0044C4.02403 22.7691 -0.291031 20.0358 0.0153413 17.4246C0.266346 15.2683 3.59584 13.7888 8.19512 13.4707C3.58846 7.9561 1.47338 2.18996 3.46296 0.4812C5.49314 -1.26085 11.03 1.87558 15.8286 7.49008C17.8366 9.8387 19.398 12.2502 20.3836 14.388C20.4869 14.6136 20.738 14.7283 20.9705 14.6543H20.9742Z" fill="#8D6959"/>
</svg>
