<svg width="32" height="32" viewBox="0 0 32 32" fill="none" xmlns="http://www.w3.org/2000/svg">
<path fill-rule="evenodd" clip-rule="evenodd" d="M17.1157 14.016C16.6264 14.8862 15.3736 14.8862 14.8843 14.016L8.07498 1.90741C7.59514 1.05416 8.21175 1.27616e-06 9.19066 9.07706e-07L22.8093 0C23.7883 -8.55795e-08 24.4048 1.05416 23.925 1.90741L17.1157 14.016ZM14.016 17.1157C14.8862 16.6264 14.8862 15.3736 14.016 14.8843L1.90741 8.07496C1.05416 7.59514 6.3808e-07 8.21173 5.95296e-07 9.19064L0 22.8093C-4.2784e-08 23.7883 1.05416 24.4048 1.90741 23.925L14.016 17.1157ZM17.1157 17.984C16.6264 17.1138 15.3736 17.1139 14.8843 17.984L8.07498 30.0926C7.59515 30.9459 8.21175 32 9.19066 32H22.8093C23.7883 32 24.4048 30.9458 23.925 30.0926L17.1157 17.984ZM17.984 14.8843C17.1138 15.3736 17.1138 16.6264 17.984 17.1157L30.0926 23.925C30.9459 24.4048 32 23.7883 32 22.8093V9.19067C32 8.21176 30.9458 7.59515 30.0926 8.07499L17.984 14.8843Z" fill="#003b70"/>
</svg>
